<svg width="1041" height="1046" viewBox="0 0 1041 1046" fill="none" xmlns="http://www.w3.org/2000/svg">
  <path d="M643.051 366.455L329.311 51.5958C260.762 -17.1986 149.639 -17.1986 81.0898 51.5958L518.962 491.009L643.073 366.455H643.051Z" fill="#D80C15" fill-opacity="0.1" />
  <path d="M365.152 397.741L51.4122 712.6C-17.1374 781.395 -17.1374 892.913 51.4122 961.708L489.263 522.294L365.152 397.741Z" fill="#D80C15" fill-opacity="0.1" />
  <path d="M395.281 678.608L709.021 993.468C777.57 1062.26 888.693 1062.26 957.242 993.468L519.392 554.055L395.281 678.608Z" fill="#D80C15" fill-opacity="0.1" />
  <path d="M675.142 646.005L988.882 331.145C1057.43 262.351 1057.43 150.832 988.882 82.0376L551.031 521.451L675.142 646.005Z" fill="#D80C15" fill-opacity="0.1" />
  <path d="M792.694 219.874L619.461 46.0006C564.542 -9.11479 475.502 -9.11479 420.583 46.0006L402.062 64.5871L674.756 338.254L792.716 219.874H792.694Z" fill="#D80C15" fill-opacity="0.1" />
  <path d="M63.7216 639.635L336.416 365.968L218.456 247.587L45.2013 421.439C-9.71813 476.554 -9.71813 565.911 45.2013 621.027L63.7216 639.613V639.635Z" fill="#D80C15" fill-opacity="0.1" />
  <path d="M245.877 826.209L419.132 1000.08C474.051 1055.2 563.09 1055.2 618.01 1000.08L636.53 981.496L363.836 707.829L245.877 826.209Z" fill="#D80C15" fill-opacity="0.1" />
  <path d="M976.032 405.408L703.338 679.076L821.297 797.456L994.552 623.583C1049.47 568.467 1049.47 479.11 994.552 423.995L976.032 405.408Z" fill="#D80C15" fill-opacity="0.1" />
</svg>