<svg width="36" height="36" viewBox="0 0 36 36" fill="none" xmlns="http://www.w3.org/2000/svg">
<path d="M0.175926 0H35.8241V35.6481H0.175926V0Z" fill="#EB352F"/>
<path d="M19.9963 6.8011C19.925 6.6585 19.7824 6.44461 19.5685 6.23073C19.1407 5.87424 18.6417 5.80295 18.4991 5.73165C18.1426 5.66036 17.8574 5.73165 17.5009 5.87424C16.6454 6.15943 16.075 6.8011 15.7185 7.58536L10.7278 20.4187L13.6509 21.4881L14.9343 18.4224H21.137L22.563 21.4881L25.6287 20.6326L19.9963 6.8011ZM15.6472 15.927L18 9.79554L20.3528 15.927H15.6472ZM10.1574 26.265H25.9139V29.4733H10.1574V26.265Z" fill="white"/>
</svg>
