<svg width="43" height="43" viewBox="0 0 43 43" fill="none" xmlns="http://www.w3.org/2000/svg">
<path d="M42.3417 26.6856C39.4753 38.1977 27.8127 45.2017 16.3006 42.3277C4.78847 39.4569 -2.2155 27.8019 0.658506 16.2909C3.52929 4.77874 15.1843 -2.22953 26.6954 0.644476C38.2075 3.51526 45.2157 15.1735 42.3417 26.6856Z" fill="#F7931A"/>
<path d="M30.9768 18.4257C31.4044 15.5635 29.2266 14.0271 26.2516 13.0032L27.2164 9.13L24.8581 8.54231L23.9137 12.3113C23.297 12.1598 22.6588 12.0137 22.0292 11.8665L22.9736 8.0728L20.6153 7.48511L19.6538 11.3551L14.8985 10.1797L14.2689 12.6981C14.2689 12.6981 16.0191 13.0967 15.9815 13.1224C16.9388 13.362 17.1107 13.9959 17.0806 14.4945L14.4322 25.1041C14.3194 25.3974 14.0207 25.8304 13.3535 25.666C13.3782 25.6993 11.6409 25.2341 11.6409 25.2341L10.4698 27.9373L15.2165 29.1374L14.2431 33.0567L16.5971 33.6401L17.5619 29.767C18.2087 29.9389 18.8297 30.1032 19.4421 30.2537L18.4773 34.1107L20.8356 34.6984L21.8133 30.7866C25.8337 31.5504 28.8559 31.2442 30.1269 27.6096C31.1551 24.6797 30.0765 22.9929 27.961 21.8895C29.5017 21.5328 30.6641 20.5218 30.9703 18.4267L30.9768 18.4257ZM25.5855 25.9808C24.8549 28.9064 19.9234 27.3238 18.3247 26.9295L19.6215 21.738C21.2202 22.1366 26.3451 22.9252 25.5855 25.9808ZM26.3161 18.3848C25.6532 21.0493 21.5479 19.6945 20.2178 19.3625L21.3889 14.6535C22.719 14.9854 27.008 15.6064 26.3161 18.3848Z" fill="white"/>
</svg>
