<svg width="24" height="24" viewBox="0 0 24 24" fill="none" xmlns="http://www.w3.org/2000/svg">
  <path
    d="M12 23C13.4448 23.0019 14.8758 22.7182 16.2106 22.1653C17.5454 21.6123 18.7578 20.8011 19.7781 19.7781C20.8011 18.7578 21.6123 17.5454 22.1653 16.2106C22.7182 14.8758 23.0019 13.4448 23 12C23.0018 10.5552 22.7181 9.12426 22.1652 7.78944C21.6123 6.45462 20.8011 5.24221 19.7781 4.22191C18.7578 3.19892 17.5454 2.38766 16.2106 1.83474C14.8758 1.28181 13.4448 0.998137 12 1.00001C10.5552 0.998167 9.12426 1.28186 7.78944 1.83478C6.45462 2.3877 5.24221 3.19895 4.22191 4.22191C3.19895 5.24221 2.3877 6.45462 1.83478 7.78944C1.28186 9.12426 0.998167 10.5552 1.00001 12C0.998137 13.4448 1.28181 14.8758 1.83474 16.2106C2.38766 17.5454 3.19892 18.7578 4.22191 19.7781C5.24221 20.8011 6.45462 21.6123 7.78944 22.1652C9.12426 22.7181 10.5552 23.0018 12 23Z"
    stroke="white" stroke-linejoin="round" />
  <path fill-rule="evenodd" clip-rule="evenodd"
    d="M12 19.1484C12.3647 19.1484 12.7144 19.0036 12.9723 18.7457C13.2301 18.4878 13.375 18.1381 13.375 17.7734C13.375 17.4088 13.2301 17.059 12.9723 16.8012C12.7144 16.5433 12.3647 16.3984 12 16.3984C11.6353 16.3984 11.2856 16.5433 11.0277 16.8012C10.7699 17.059 10.625 17.4088 10.625 17.7734C10.625 18.1381 10.7699 18.4878 11.0277 18.7457C11.2856 19.0036 11.6353 19.1484 12 19.1484Z"
    fill="white" />
  <path d="M12 5.39844V14.1984" stroke="white" stroke-width="2" stroke-linecap="round"
    stroke-linejoin="round" />
</svg>