<svg width="44" height="43" viewBox="0 0 44 43" fill="none" xmlns="http://www.w3.org/2000/svg">
<path d="M11.9061 21.7941L21.9957 27.758V5.05286L11.9061 21.7941Z" fill="white"/>
<path d="M21.9957 5.05286V27.758L32.0854 21.7941L21.9957 5.05286Z" fill="#C8C8C8"/>
<path d="M11.9061 23.7043L21.9957 37.9229V29.6672L11.9061 23.7043Z" fill="white"/>
<path d="M21.9957 29.6672V37.9229L32.0897 23.7043L21.9957 29.6672Z" fill="#C8C8C8"/>
<path d="M21.9958 17.2075L11.9062 21.7952L21.9958 27.7591L32.0854 21.7952L21.9958 17.2075Z" fill="white" fill-opacity="0.8"/>
<path fill-rule="evenodd" clip-rule="evenodd" d="M22 0C33.8688 0 43.4879 9.61905 43.4879 21.4879C43.4879 33.3567 33.8688 42.9757 22 42.9757C10.1312 42.9757 0.512146 33.3567 0.512146 21.4879C0.512146 9.61905 10.1312 0 22 0ZM22 3.06417C32.1777 3.06417 40.4237 11.3112 40.4237 21.4879C40.4237 31.6656 32.1767 39.9116 22 39.9116C11.8223 39.9116 3.57632 31.6645 3.57632 21.4879C3.57632 11.3101 11.8234 3.06417 22 3.06417Z" fill="white"/>
</svg>
