<svg width="17" height="18" viewBox="0 0 17 18" fill="none" xmlns="http://www.w3.org/2000/svg">
<path fill-rule="evenodd" clip-rule="evenodd" d="M4.99568 0.551C5.90209 0.509273 6.19109 0.5 8.5 0.5C10.8089 0.5 11.0979 0.510045 12.0035 0.551C12.9092 0.591955 13.5274 0.736455 14.0683 0.945864C14.6347 1.15991 15.1485 1.4945 15.5735 1.92723C16.0063 2.35145 16.3401 2.86455 16.5534 3.43173C16.7635 3.97264 16.9073 4.59082 16.949 5.49491C16.9907 6.40286 17 6.69186 17 9C17 11.3089 16.99 11.5979 16.949 12.5043C16.908 13.4084 16.7635 14.0266 16.5534 14.5675C16.3401 15.1348 16.0057 15.6487 15.5735 16.0735C15.1485 16.5063 14.6347 16.8401 14.0683 17.0534C13.5274 17.2635 12.9092 17.4073 12.0051 17.449C11.0979 17.4907 10.8089 17.5 8.5 17.5C6.19109 17.5 5.90209 17.49 4.99568 17.449C4.09159 17.408 3.47341 17.2635 2.9325 17.0534C2.36526 16.8401 1.85132 16.5057 1.42645 16.0735C0.994021 15.6491 0.65938 15.1354 0.445864 14.5683C0.236455 14.0274 0.0927273 13.4092 0.051 12.5051C0.00927271 11.5971 0 11.3081 0 9C0 6.69109 0.0100454 6.40209 0.051 5.49645C0.0919545 4.59082 0.236455 3.97264 0.445864 3.43173C0.659695 2.86461 0.994592 2.35092 1.42723 1.92645C1.85149 1.49411 2.36491 1.15948 2.93173 0.945864C3.47264 0.736455 4.09082 0.592727 4.99491 0.551H4.99568ZM11.9348 2.081C11.0384 2.04005 10.7695 2.03155 8.5 2.03155C6.2305 2.03155 5.96159 2.04005 5.06523 2.081C4.23609 2.11886 3.78636 2.25718 3.48655 2.37386C3.09014 2.52841 2.80655 2.71155 2.50905 3.00905C2.22703 3.2834 2.01 3.6174 1.87386 3.98655C1.75718 4.28636 1.61886 4.73609 1.581 5.56523C1.54005 6.46159 1.53155 6.7305 1.53155 9C1.53155 11.2695 1.54005 11.5384 1.581 12.4348C1.61886 13.2639 1.75718 13.7136 1.87386 14.0135C2.00986 14.382 2.227 14.7166 2.50905 14.991C2.78336 15.273 3.11795 15.4901 3.48655 15.6261C3.78636 15.7428 4.23609 15.8811 5.06523 15.919C5.96159 15.96 6.22973 15.9685 8.5 15.9685C10.7703 15.9685 11.0384 15.96 11.9348 15.919C12.7639 15.8811 13.2136 15.7428 13.5135 15.6261C13.9099 15.4716 14.1935 15.2885 14.491 14.991C14.773 14.7166 14.9901 14.382 15.1261 14.0135C15.2428 13.7136 15.3811 13.2639 15.419 12.4348C15.46 11.5384 15.4685 11.2695 15.4685 9C15.4685 6.7305 15.46 6.46159 15.419 5.56523C15.3811 4.73609 15.2428 4.28636 15.1261 3.98655C14.9716 3.59014 14.7885 3.30655 14.491 3.00905C14.2166 2.72706 13.8826 2.51003 13.5135 2.37386C13.2136 2.25718 12.7639 2.11886 11.9348 2.081ZM7.41432 11.6203C8.02065 11.8727 8.69579 11.9068 9.32444 11.7167C9.9531 11.5266 10.4963 11.1242 10.8612 10.5781C11.226 10.032 11.39 9.37622 11.3251 8.72267C11.2602 8.06913 10.9704 7.45839 10.5052 6.99477C10.2087 6.69841 9.85012 6.47149 9.45535 6.33034C9.06058 6.18919 8.63942 6.13732 8.2222 6.17848C7.80498 6.21963 7.40207 6.35277 7.04248 6.56833C6.6829 6.78388 6.37557 7.07648 6.14264 7.42507C5.90971 7.77365 5.75696 8.16954 5.6954 8.58424C5.63383 8.99894 5.66498 9.42214 5.7866 9.82335C5.90822 10.2246 6.11728 10.5938 6.39874 10.9046C6.6802 11.2153 7.02705 11.4597 7.41432 11.6203ZM5.41064 5.91064C5.81634 5.50494 6.29797 5.18312 6.82805 4.96355C7.35812 4.74399 7.92625 4.63098 8.5 4.63098C9.07375 4.63098 9.64188 4.74399 10.172 4.96355C10.702 5.18312 11.1837 5.50494 11.5894 5.91064C11.9951 6.31634 12.3169 6.79797 12.5364 7.32805C12.756 7.85812 12.869 8.42625 12.869 9C12.869 9.57375 12.756 10.1419 12.5364 10.672C12.3169 11.202 11.9951 11.6837 11.5894 12.0894C10.77 12.9087 9.65874 13.369 8.5 13.369C7.34126 13.369 6.22999 12.9087 5.41064 12.0894C4.59129 11.27 4.13098 10.1587 4.13098 9C4.13098 7.84126 4.59129 6.72999 5.41064 5.91064ZM13.838 5.28164C13.9385 5.1868 14.019 5.07275 14.0747 4.94625C14.1304 4.81975 14.1601 4.68337 14.1621 4.54517C14.1641 4.40698 14.1384 4.26979 14.0864 4.14172C14.0345 4.01365 13.9573 3.8973 13.8596 3.79958C13.7619 3.70185 13.6455 3.62472 13.5175 3.57276C13.3894 3.52081 13.2522 3.49507 13.114 3.49709C12.9758 3.4991 12.8394 3.52882 12.7129 3.58449C12.5864 3.64016 12.4724 3.72065 12.3775 3.82118C12.1931 4.0167 12.0921 4.27641 12.096 4.54517C12.1 4.81393 12.2085 5.07059 12.3985 5.26065C12.5886 5.45071 12.8452 5.55922 13.114 5.56314C13.3828 5.56706 13.6425 5.46608 13.838 5.28164Z" fill="#9A9A9A"/>
</svg>
