<svg width="11" height="18" viewBox="0 0 11 18" fill="none" xmlns="http://www.w3.org/2000/svg">
  <path
    d="M9.19115 16.4626L9.02245 15.7832L9.19115 16.4626ZM9.17098 14.3145L8.68433 14.8176L9.17098 14.3145ZM9.79811 14.962L9.20454 15.3331L9.79811 14.962ZM9.17098 3.17759L9.65763 3.68075L9.17098 3.17759ZM9.79807 2.53009L10.3916 2.90115L9.79807 2.53009ZM1.7 8.74604C1.7 4.85462 4.85462 1.7 8.74604 1.7V0.3C4.08142 0.3 0.3 4.08142 0.3 8.74604H1.7ZM8.74604 15.7921C4.85462 15.7921 1.7 12.6375 1.7 8.74604H0.3C0.3 13.4107 4.08142 17.1921 8.74604 17.1921V15.7921ZM9.65763 13.8113C8.33222 12.5294 7.50953 10.7344 7.50953 8.74602H6.10953C6.10953 11.1292 7.09749 13.2828 8.68433 14.8176L9.65763 13.8113ZM7.50953 8.74602C7.50953 6.75767 8.33222 4.96268 9.65763 3.68075L8.68433 2.67443C7.09749 4.2092 6.10953 6.36285 6.10953 8.74602H7.50953ZM8.74604 17.1921C8.93807 17.1921 9.14099 17.1963 9.35985 17.142L9.02245 15.7832C9.01668 15.7847 9.00563 15.7874 8.96849 15.7894C8.92199 15.7919 8.86155 15.7921 8.74604 15.7921V17.1921ZM8.68433 14.8176C8.87463 15.0017 9.00748 15.1302 9.10155 15.226C9.20855 15.3348 9.21844 15.3553 9.20454 15.3331L10.3917 14.591C10.3129 14.465 10.1967 14.343 10.1001 14.2446C9.9905 14.1332 9.84219 13.9898 9.65763 13.8113L8.68433 14.8176ZM9.35985 17.142C10.4813 16.8635 11.0042 15.5708 10.3917 14.591L9.20454 15.3331C9.31255 15.5058 9.22022 15.7341 9.02245 15.7832L9.35985 17.142ZM8.74604 1.7C8.86154 1.7 8.92196 1.70022 8.96846 1.70269C9.00559 1.70467 9.01664 1.70741 9.02242 1.70884L9.35979 0.350099C9.14094 0.295761 8.93805 0.3 8.74604 0.3V1.7ZM9.65763 3.68075C9.84218 3.50226 9.99047 3.35891 10.1 3.24743C10.1967 3.1491 10.3129 3.02707 10.3916 2.90115L9.2045 2.15903C9.2184 2.13679 9.20851 2.15725 9.10152 2.26612C9.00746 2.36183 8.87462 2.49038 8.68433 2.67443L9.65763 3.68075ZM9.02242 1.70884C9.22019 1.75795 9.31252 1.98623 9.2045 2.15903L10.3916 2.90115C11.0042 1.92128 10.4813 0.628569 9.35979 0.350099L9.02242 1.70884Z"
    fill="#131517" />
</svg>