<svg width="40" height="39" viewBox="0 0 40 39" fill="none" xmlns="http://www.w3.org/2000/svg">
<path d="M20 39C30.7696 39 39.5 30.2696 39.5 19.5C39.5 8.73045 30.7696 0 20 0C9.23045 0 0.5 8.73045 0.5 19.5C0.5 30.2696 9.23045 39 20 39Z" fill="#E30611"/>
<path fill-rule="evenodd" clip-rule="evenodd" d="M12.5 21.3222C12.5 25.643 14.8154 30 20.0001 30C25.1801 30 27.5 25.643 27.5 21.3222C27.5 18.3711 26.5486 14.9728 24.9607 12.2273C23.4165 9.57662 21.5609 8 20.0001 8C18.4346 8 16.5785 9.57662 15.0477 12.2273C13.452 14.9728 12.5 18.3711 12.5 21.3222Z" fill="white"/>
</svg>
