<svg width="22" height="22" viewBox="0 0 22 22" fill="none" xmlns="http://www.w3.org/2000/svg">
  <path
    d="M11 0C8.82441 0 6.69767 0.645138 4.88873 1.85383C3.07979 3.06253 1.66989 4.78049 0.83733 6.79048C0.00476609 8.80047 -0.213071 11.0122 0.211367 13.146C0.635804 15.2798 1.68345 17.2398 3.22183 18.7782C4.76021 20.3165 6.72022 21.3642 8.85401 21.7886C10.9878 22.2131 13.1995 21.9952 15.2095 21.1627C17.2195 20.3301 18.9375 18.9202 20.1462 17.1113C21.3549 15.3023 22 13.1756 22 11C22 8.08262 20.8411 5.28472 18.7782 3.22182C16.7153 1.15893 13.9174 0 11 0ZM18.1844 7.30812L9.15063 16.335L3.81563 11C3.63329 10.8177 3.53086 10.5704 3.53086 10.3125C3.53086 10.0546 3.63329 9.80733 3.81563 9.625C3.99797 9.44266 4.24527 9.34023 4.50313 9.34023C4.76099 9.34023 5.00829 9.44266 5.19063 9.625L9.16438 13.5987L16.8231 5.94687C16.9134 5.85659 17.0206 5.78497 17.1386 5.73611C17.2565 5.68725 17.3829 5.6621 17.5106 5.6621C17.6383 5.6621 17.7647 5.68725 17.8827 5.73611C18.0007 5.78497 18.1078 5.85659 18.1981 5.94687C18.2884 6.03716 18.36 6.14434 18.4089 6.2623C18.4577 6.38026 18.4829 6.50669 18.4829 6.63437C18.4829 6.76205 18.4577 6.88848 18.4089 7.00645C18.36 7.12441 18.2884 7.23159 18.1981 7.32187L18.1844 7.30812Z"
    fill="white" />
</svg>