<svg width="24" height="20" viewBox="0 0 24 20" fill="none" xmlns="http://www.w3.org/2000/svg">
<path d="M24 9.73381C24 8.22799 22.7588 7.00332 21.2347 7.00332C20.5744 7.00332 19.9567 7.24185 19.4583 7.65907C19.4422 7.66887 19.4256 7.67813 19.4098 7.68819C17.6117 6.55221 15.2274 5.82684 12.5899 5.72835L14.1641 1.3078L18.0932 2.23543C18.0964 3.46195 19.1069 4.45921 20.3505 4.45921C21.595 4.45921 22.6084 3.4593 22.6084 2.22987C22.6084 0.999907 21.595 0 20.3505 0C19.4044 0 18.5962 0.577654 18.2611 1.39251L13.606 0.293857L11.6728 5.71829C8.92249 5.76939 6.43008 6.50429 4.56499 7.6784C4.06287 7.2482 3.43635 7.00306 2.76398 7.00306C1.23937 7.00306 0 8.22799 0 9.73354C0 10.6649 0.486579 11.5253 1.27502 12.0262C1.22468 12.299 1.1984 12.5756 1.19647 12.8529C1.19647 16.7938 6.03358 20 11.9787 20C17.9249 20 22.7622 16.7938 22.7622 12.8529C22.7608 12.5836 22.7364 12.3148 22.6893 12.0495C23.4989 11.5523 24 10.6794 24 9.73381ZM15.6453 13.2688C15.4222 13.2689 15.2013 13.2255 14.9952 13.1412C14.7891 13.0568 14.6018 12.9332 14.4441 12.7774C14.2864 12.6216 14.1614 12.4366 14.0761 12.233C13.9909 12.0294 13.9471 11.8112 13.9473 11.5909C13.9473 11.2591 14.047 10.9347 14.2338 10.6589C14.4205 10.383 14.6859 10.168 14.9964 10.0411C15.3068 9.9142 15.6485 9.88106 15.978 9.94589C16.3076 10.0107 16.6103 10.1706 16.8478 10.4053C17.0853 10.64 17.247 10.939 17.3125 11.2645C17.3779 11.59 17.3441 11.9273 17.2154 12.2338C17.0867 12.5403 16.8688 12.8023 16.5894 12.9865C16.3099 13.1707 15.9813 13.269 15.6453 13.2688ZM15.9834 16.1296C15.9324 16.1809 14.7145 17.4059 11.9597 17.4059C9.1895 17.4059 8.0823 16.1645 8.03592 16.111C7.96135 16.0245 7.9245 15.9124 7.93344 15.7991C7.94238 15.6858 7.99639 15.5807 8.08364 15.5066C8.17097 15.4335 8.28388 15.3971 8.39809 15.4053C8.5123 15.4135 8.61868 15.4657 8.69435 15.5506C8.71901 15.5781 9.64338 16.5489 11.9597 16.5489C14.3145 16.5489 15.348 15.5434 15.359 15.5336C15.4397 15.4551 15.5484 15.4109 15.6617 15.4103C15.775 15.4098 15.8841 15.453 15.9656 15.5308C16.0471 15.6086 16.0946 15.7147 16.0979 15.8266C16.1012 15.9385 16.0601 16.0472 15.9834 16.1296ZM6.855 11.5909C6.8511 11.3681 6.89218 11.1468 6.97584 10.9399C7.0595 10.733 7.18407 10.5446 7.34228 10.3857C7.50048 10.2268 7.68915 10.1006 7.89726 10.0146C8.10538 9.92848 8.32878 9.8842 8.55442 9.8843C8.78006 9.88441 9.00341 9.9289 9.21145 10.0152C9.41948 10.1015 9.60803 10.2278 9.76608 10.3868C9.92413 10.5458 10.0485 10.7344 10.132 10.9414C10.2155 11.1484 10.2563 11.3697 10.2522 11.5925C10.2441 12.0322 10.0614 12.4512 9.74361 12.7592C9.42577 13.0673 8.99815 13.2398 8.55281 13.2396C8.10747 13.2394 7.68001 13.0665 7.36247 12.7581C7.04493 12.4498 6.8627 12.0306 6.855 11.5909Z" fill="#9A9A9A"/>
</svg>
