<svg width="46" height="46" viewBox="0 0 46 46" fill="none" xmlns="http://www.w3.org/2000/svg">
<path d="M15.3333 7.66667L14.8384 7.1717L15.3333 6.67672L15.8283 7.1717L15.3333 7.66667ZM15.3333 24.8333L14.6333 24.8333L15.3333 24.8333ZM19.1667 26.1333C19.5533 26.1333 19.8667 26.4467 19.8667 26.8333C19.8667 27.2199 19.5533 27.5333 19.1667 27.5333L19.1667 26.1333ZM7.17169 14.8384L14.8384 7.1717L15.8283 8.16165L8.16164 15.8283L7.17169 14.8384ZM15.8283 7.1717L23.495 14.8384L22.505 15.8283L14.8384 8.16165L15.8283 7.1717ZM16.0333 7.66667L16.0333 24.8333L14.6333 24.8333L14.6333 7.66667L16.0333 7.66667ZM17.3333 26.1333L19.1667 26.1333L19.1667 27.5333L17.3333 27.5333L17.3333 26.1333ZM16.0333 24.8333C16.0333 25.5513 16.6154 26.1333 17.3333 26.1333L17.3333 27.5333C15.8422 27.5333 14.6333 26.3245 14.6333 24.8333L16.0333 24.8333Z" fill="#9A9A9A"/>
<path d="M30.6667 38.3333L30.1717 38.8283L30.6667 39.3233L31.1616 38.8283L30.6667 38.3333ZM30.6667 21.1667L29.9667 21.1667L30.6667 21.1667ZM26.8333 18.4667C26.4467 18.4667 26.1333 18.7801 26.1333 19.1667C26.1333 19.5533 26.4467 19.8667 26.8333 19.8667L26.8333 18.4667ZM22.505 31.1617L30.1717 38.8283L31.1616 37.8384L23.495 30.1717L22.505 31.1617ZM31.1616 38.8283L38.8283 31.1617L37.8384 30.1717L30.1717 37.8384L31.1616 38.8283ZM31.3667 38.3333L31.3667 21.1667L29.9667 21.1667L29.9667 38.3333L31.3667 38.3333ZM28.6667 18.4667L26.8333 18.4667L26.8333 19.8667L28.6667 19.8667L28.6667 18.4667ZM31.3667 21.1667C31.3667 19.6755 30.1578 18.4667 28.6667 18.4667L28.6667 19.8667C29.3846 19.8667 29.9667 20.4487 29.9667 21.1667L31.3667 21.1667Z" fill="#9A9A9A"/>
</svg>
