<svg width="65" height="65" viewBox="0 0 65 65" fill="none" xmlns="http://www.w3.org/2000/svg">
  <circle cx="32.5" cy="32.5" r="22" fill="#131517" stroke="#4A4A4A" />
  <g filter="url(#filter0_f_48_1396)">
</g>
  <path
    d="M28.3814 24.2617L27.8865 23.7667L28.3814 23.2718L28.8764 23.7667L28.3814 24.2617ZM28.3814 32.561L27.6814 32.561L27.6814 32.561L28.3814 32.561ZM30.4413 33.861C30.8279 33.861 31.1413 34.1744 31.1413 34.561C31.1413 34.9476 30.8279 35.261 30.4413 35.261L30.4413 33.861ZM23.7667 27.8865L27.8865 23.7667L28.8764 24.7567L24.7567 28.8764L23.7667 27.8865ZM28.8764 23.7667L32.9961 27.8865L32.0062 28.8764L27.8865 24.7567L28.8764 23.7667ZM29.0814 24.2617L29.0814 32.561L27.6814 32.561L27.6814 24.2617L29.0814 24.2617ZM30.3814 33.861L30.4413 33.861L30.4413 35.261L30.3814 35.261L30.3814 33.861ZM29.0814 32.561C29.0814 33.279 29.6635 33.861 30.3814 33.861L30.3814 35.261C28.8903 35.261 27.6814 34.0522 27.6814 32.561L29.0814 32.561Z"
    fill="#4A4A4A" />
  <path
    d="M36.6207 40.7407L36.1257 41.2357L36.6207 41.7307L37.1157 41.2357L36.6207 40.7407ZM36.6207 32.4414L35.9207 32.4414V32.4414L36.6207 32.4414ZM34.5608 29.7414C34.1742 29.7414 33.8608 30.0548 33.8608 30.4414C33.8608 30.828 34.1742 31.1414 34.5608 31.1414L34.5608 29.7414ZM32.006 37.116L36.1257 41.2357L37.1157 40.2457L32.996 36.126L32.006 37.116ZM37.1157 41.2357L41.2354 37.116L40.2454 36.126L36.1257 40.2457L37.1157 41.2357ZM37.3207 40.7407L37.3207 32.4414L35.9207 32.4414L35.9207 40.7407L37.3207 40.7407ZM34.6207 29.7414L34.5608 29.7414L34.5608 31.1414L34.6207 31.1414L34.6207 29.7414ZM37.3207 32.4414C37.3207 30.9503 36.1119 29.7414 34.6207 29.7414L34.6207 31.1414C35.3387 31.1414 35.9207 31.7235 35.9207 32.4414L37.3207 32.4414Z"
    fill="#4A4A4A" />
  <defs>
</defs>
</svg>