<svg width="40" height="39" viewBox="0 0 40 39" fill="none" xmlns="http://www.w3.org/2000/svg">
<path d="M35.4309 7.57715C36.3572 8.7748 37.1414 10.076 37.7675 11.4545L20.0048 24.5489L12.5813 19.8952V14.2966L20.0048 18.9503L35.4309 7.57715Z" fill="#21A038"/>
<path d="M5.00502 19.5002C5.00502 19.249 5.01114 18.9994 5.0234 18.7513L0.524532 18.5308C0.509219 18.8524 0.500036 19.1771 0.500036 19.5047C0.498122 22.0649 1.00167 24.6002 1.98182 26.9652C2.96196 29.3303 4.39939 31.4785 6.21166 33.2867L9.40281 30.0969C8.00779 28.7075 6.90112 27.056 6.1464 25.2375C5.39167 23.4189 5.00378 21.4691 5.00502 19.5002Z" fill="url(#paint0_linear_2701_1897)"/>
<path d="M20.0007 4.50406C20.2517 4.50406 20.5013 4.51325 20.7493 4.5255L20.9744 0.0249365C20.6519 0.00962328 20.3273 0.00196759 20.0007 0.00196759C17.4394 -0.00115594 14.9028 0.50169 12.5365 1.48163C10.1702 2.46157 8.02074 3.89931 6.21158 5.71229L9.40273 8.90356C10.7922 7.50803 12.4437 6.40092 14.2625 5.6459C16.0813 4.89088 18.0313 4.50282 20.0007 4.50406Z" fill="url(#paint1_linear_2701_1897)"/>
<path d="M20.0008 34.4965C19.7497 34.4965 19.5 34.4965 19.2505 34.4766L19.0254 38.9756C19.349 38.992 19.6741 39.0002 20.0008 39.0002C22.561 39.0028 25.0963 38.4996 27.4614 37.5194C29.8264 36.5392 31.9745 35.1013 33.7823 33.2883L30.5972 30.0986C29.2075 31.4934 27.5561 32.5999 25.7377 33.3546C23.9193 34.1094 21.9696 34.4975 20.0008 34.4965Z" fill="url(#paint2_linear_2701_1897)"/>
<path d="M28.4534 7.12069L32.2448 4.32602C28.7794 1.51981 24.4537 -0.00778974 19.9946 2.98721e-05V4.50365C23.0141 4.49991 25.9635 5.41245 28.4534 7.12069Z" fill="url(#paint3_linear_2701_1897)"/>
<path d="M39.4999 19.4999C39.5023 18.3283 39.3998 17.1587 39.1936 16.0054L34.9964 19.0987C34.9964 19.232 34.9964 19.3651 34.9964 19.4999C34.9975 21.5952 34.5583 23.6673 33.7074 25.582C32.8563 27.4966 31.6125 29.2111 30.0565 30.6142L33.0839 33.9602C35.1067 32.134 36.7232 29.903 37.8285 27.412C38.9339 24.9208 39.5033 22.2252 39.4999 19.4999Z" fill="#21A038"/>
<path d="M20.0008 34.4963C17.9054 34.497 15.8332 34.0576 13.9184 33.2067C12.0037 32.3557 10.289 31.112 8.88532 29.5562L5.54105 32.5821C7.36702 34.6054 9.59784 36.2222 12.0888 37.3278C14.5798 38.4334 17.2754 39.0031 20.0008 38.9998V34.4963Z" fill="url(#paint4_linear_2701_1897)"/>
<path d="M9.94489 8.3855L6.91911 5.03955C4.89565 6.86547 3.27856 9.09632 2.17272 11.5874C1.0669 14.0785 0.497016 16.7742 0.500043 19.4998H5.00503C5.0041 17.4046 5.44336 15.3325 6.29433 13.4178C7.14531 11.5032 8.38902 9.78877 9.94489 8.3855Z" fill="url(#paint5_linear_2701_1897)"/>
<defs>
<linearGradient id="paint0_linear_2701_1897" x1="7.12276" y1="32.7247" x2="2.20093" y2="18.4973" gradientUnits="userSpaceOnUse">
<stop offset="0.14" stop-color="#F1E813"/>
<stop offset="0.3" stop-color="#E6E418"/>
<stop offset="0.58" stop-color="#C9DA26"/>
<stop offset="0.89" stop-color="#A2CC39"/>
</linearGradient>
<linearGradient id="paint1_linear_2701_1897" x1="7.49783" y1="6.50857" x2="20.1752" y2="1.67756" gradientUnits="userSpaceOnUse">
<stop offset="0.06" stop-color="#0FA7DF"/>
<stop offset="0.54" stop-color="#0098F8"/>
<stop offset="0.92" stop-color="#0290EA"/>
</linearGradient>
<linearGradient id="paint2_linear_2701_1897" x1="18.7284" y1="36.282" x2="33.0641" y2="33.0436" gradientUnits="userSpaceOnUse">
<stop offset="0.12" stop-color="#A2CC39"/>
<stop offset="0.28" stop-color="#86C239"/>
<stop offset="0.87" stop-color="#219F38"/>
</linearGradient>
<linearGradient id="paint3_linear_2701_1897" x1="19.0576" y1="1.50838" x2="31.3139" y2="5.29049" gradientUnits="userSpaceOnUse">
<stop offset="0.06" stop-color="#0290EA"/>
<stop offset="0.79" stop-color="#0C89CA"/>
</linearGradient>
<linearGradient id="paint4_linear_2701_1897" x1="6.67111" y1="32.0339" x2="20.0116" y2="37.0195" gradientUnits="userSpaceOnUse">
<stop offset="0.13" stop-color="#F1E813"/>
<stop offset="0.3" stop-color="#EAE616"/>
<stop offset="0.53" stop-color="#D8DF1F"/>
<stop offset="0.8" stop-color="#BAD52D"/>
<stop offset="0.98" stop-color="#A2CC39"/>
</linearGradient>
<linearGradient id="paint5_linear_2701_1897" x1="2.17831" y1="20.0449" x2="7.53351" y2="6.11469" gradientUnits="userSpaceOnUse">
<stop offset="0.07" stop-color="#A2CC39"/>
<stop offset="0.26" stop-color="#81C45E"/>
<stop offset="0.92" stop-color="#0FA7DF"/>
</linearGradient>
</defs>
</svg>
