<svg width="23" height="22" viewBox="0 0 23 22" fill="none" xmlns="http://www.w3.org/2000/svg">
  <path
    d="M6.91666 6.53759V6.44535C6.91666 4.29946 6.91666 3.22651 7.60625 2.62842C8.29585 2.03034 9.35801 2.18208 11.4823 2.48555L14.5985 2.93072C17.0546 3.2816 18.2827 3.45704 19.0164 4.30293C19.75 5.14882 19.75 6.38935 19.75 8.87042V13.1295C19.75 15.6106 19.75 16.8511 19.0164 17.697C18.2827 18.5429 17.0546 18.7184 14.5985 19.0692L11.3941 19.527C9.3548 19.8183 8.33517 19.964 7.657 19.4141C7.6227 19.3863 7.58933 19.3573 7.55695 19.3273C6.91666 18.7337 6.91666 17.7038 6.91666 15.6438V15.6438"
    stroke="currentColor" stroke-width="1.4" />
  <path
    d="M15.1667 11L15.7133 10.5627L16.0631 11L15.7133 11.4373L15.1667 11ZM4.16666 11.7C3.78006 11.7 3.46666 11.3866 3.46666 11C3.46666 10.6134 3.78006 10.3 4.16666 10.3V11.7ZM12.0466 5.9794L15.7133 10.5627L14.62 11.4373L10.9534 6.85397L12.0466 5.9794ZM15.7133 11.4373L12.0466 16.0206L10.9534 15.1461L14.62 10.5627L15.7133 11.4373ZM15.1667 11.7H4.16666V10.3H15.1667V11.7Z"
    fill="currentColor" />
</svg>