<svg width="43" height="43" viewBox="0 0 43 43" fill="none" xmlns="http://www.w3.org/2000/svg">
<path d="M42.8536 21.3535C42.8536 33.1472 33.2935 42.7071 21.5 42.7071C9.70682 42.7071 0.146404 33.1472 0.146404 21.3535C0.146404 9.56021 9.70682 0 21.5 0C33.2935 0 42.8536 9.56021 42.8536 21.3535Z" fill="#1BA27A"/>
<path fill-rule="evenodd" clip-rule="evenodd" d="M11.3022 10.7679H31.5219V15.6493H23.8528V18.8772C29.8324 19.1289 34.357 20.3056 34.357 21.7195C34.357 23.1333 29.8322 24.3101 23.8525 24.5616V34.8573H18.9715V24.5575C13.0375 24.2979 8.55952 23.126 8.55952 21.7195C8.55952 20.313 13.0377 19.1411 18.9714 18.8812V15.6493H11.3022V10.7679ZM18.9714 19.1554C13.8226 19.3774 9.97077 20.2738 9.97077 21.3455C9.97077 22.5843 15.1142 23.5883 21.4583 23.5883C27.8025 23.5883 32.9457 22.5843 32.9457 21.3455C32.9457 20.2673 29.0477 19.3666 23.8528 19.1516V22.8241H18.9714V19.1554Z" fill="white"/>
</svg>
