<svg width="23" height="22" viewBox="0 0 23 22" fill="none" xmlns="http://www.w3.org/2000/svg">
<circle cx="11.5" cy="7.33335" r="3.66667" stroke="white" stroke-width="1.4" stroke-linecap="round"/>
<path fill-rule="evenodd" clip-rule="evenodd" d="M14.7689 14.5C14.3708 14.3639 13.9584 14.2527 13.5359 14.1678C12.2015 13.8996 10.7985 13.8996 9.46406 14.1678C8.13022 14.4359 6.89736 14.9655 5.89454 15.7176C4.89128 16.47 4.14329 17.4274 3.75734 18.5077C3.62727 18.8717 3.81696 19.2723 4.18102 19.4024C4.54509 19.5324 4.94566 19.3427 5.07572 18.9787C5.35611 18.1939 5.91731 17.4505 6.73454 16.8376C7.55219 16.2243 8.58693 15.7721 9.73989 15.5404C10.3758 15.4126 11.0308 15.3553 11.6839 15.3685C12.0444 14.844 12.6487 14.5 13.3333 14.5L14.7689 14.5Z" fill="white"/>
<path d="M17 12.8333L17 20.1666" stroke="white" stroke-width="1.2" stroke-linecap="round"/>
<path d="M20.6667 16.5L13.3333 16.5" stroke="white" stroke-width="1.2" stroke-linecap="round"/>
</svg>
