<svg width="42" height="42" viewBox="0 0 42 42" fill="none" xmlns="http://www.w3.org/2000/svg">
<rect width="42" height="42" rx="21" fill="#DB1010"/>
<path fill-rule="evenodd" clip-rule="evenodd" d="M16.3763 15.2559C16.3763 12.7022 18.4465 10.632 21.0002 10.632C23.554 10.632 25.6242 12.7022 25.6242 15.2559C25.6242 17.8097 23.554 19.8799 21.0002 19.8799C18.4465 19.8799 16.3763 17.8097 16.3763 15.2559ZM21.0002 9C17.5452 9 14.7443 11.8009 14.7443 15.2559C14.7443 18.711 17.5452 21.5119 21.0002 21.5119C24.4553 21.5119 27.2562 18.711 27.2562 15.2559C27.2562 11.8009 24.4553 9 21.0002 9ZM20.9998 25.3197C19.0239 25.3197 17.1032 25.9717 15.5356 27.1745C13.968 28.3774 12.8412 30.0639 12.3298 31.9724C12.2131 32.4077 12.4715 32.8552 12.9068 32.9718C13.3421 33.0885 13.7895 32.8301 13.9061 32.3948C14.3246 30.8333 15.2466 29.4534 16.5291 28.4693C17.8117 27.4851 19.3832 26.9517 20.9998 26.9517C22.6165 26.9517 24.1879 27.4851 25.4705 28.4693C26.7531 29.4534 27.6751 30.8333 28.0935 32.3948C28.2101 32.8301 28.6576 33.0885 29.0929 32.9718C29.5282 32.8552 29.7865 32.4078 29.6699 31.9724C29.1585 30.0639 28.0316 28.3774 26.464 27.1745C24.8964 25.9717 22.9757 25.3197 20.9998 25.3197Z" fill="white"/>
</svg>
