<svg width="47" height="15" viewBox="0 0 47 15" fill="none" xmlns="http://www.w3.org/2000/svg">
<path d="M20.474 14.5434H16.7532L19.0845 0.26246H22.8052L20.474 14.5434ZM13.6191 0.26246L10.0682 10.0816L9.65134 7.96644L8.4008 1.54388C8.4008 1.54388 8.24641 0.26246 6.64077 0.26246H0.774005L0.71225 0.509482C0.71225 0.509482 2.50316 0.880014 4.60284 2.146L7.82956 14.5588H11.7047L17.6178 0.277899H13.6191V0.26246ZM38.7844 9.47945L40.7452 4.13761L41.8413 9.47945H38.7844ZM42.8757 14.528H46.2877L43.308 0.247022H40.3129C38.9388 0.247022 38.5992 1.3123 38.5992 1.3123L33.0566 14.528H36.9318L37.7037 12.4128H42.428L42.8603 14.528H42.8757ZM33.35 3.68988L33.8749 0.617554L30.5247 0C28.672 0 24.3028 0.80282 24.3028 4.72429C24.3028 8.41417 29.4439 8.46049 29.4439 10.3903C29.4439 12.3356 24.8277 11.9805 23.3147 10.7609L22.7589 13.9722C22.7589 13.9722 24.4263 14.775 26.9583 14.775C29.4903 14.775 33.3191 13.4627 33.3191 9.88086C33.3191 6.1601 28.1316 5.82045 28.1316 4.19937C28.1316 2.57829 31.7598 2.79443 33.35 3.67445V3.68988Z" fill="#0060AA"/>
<path d="M9.65134 7.96643L8.4008 1.54388C8.4008 1.54388 8.24641 0.262451 6.64077 0.262451H0.774005L0.71225 0.509473C0.71225 0.509473 3.52212 1.09615 6.23936 3.27303C8.81764 5.35727 9.66678 7.96643 9.66678 7.96643H9.65134Z" fill="#F7A82D"/>
</svg>
