<svg width="19" height="20" viewBox="0 0 19 20" fill="none" xmlns="http://www.w3.org/2000/svg">
<path fill-rule="evenodd" clip-rule="evenodd" d="M13.8532 11.8858C13.6162 11.7678 12.454 11.1994 12.2376 11.1202C12.0212 11.0418 11.8637 11.0031 11.7054 11.239C11.5479 11.4733 11.0953 12.0037 10.9577 12.1605C10.8193 12.318 10.6817 12.337 10.4454 12.2198C10.2091 12.1011 9.44708 11.8533 8.54421 11.0521C7.84181 10.4283 7.36691 9.65802 7.22929 9.4221C7.09167 9.18698 7.21418 9.05952 7.3327 8.94235C7.4393 8.83706 7.56896 8.66764 7.68748 8.53069C7.80601 8.39294 7.84499 8.29477 7.92374 8.13723C8.00329 7.98048 7.96351 7.84352 7.90385 7.72556C7.84499 7.6076 7.37248 6.4494 7.1752 5.97836C6.98349 5.51998 6.7886 5.58252 6.64382 5.57461C6.50541 5.56827 6.3479 5.56669 6.1904 5.56669C6.03289 5.56669 5.77675 5.62527 5.56038 5.86119C5.34321 6.09631 4.73308 6.66552 4.73308 7.82373C4.73308 8.98114 5.57947 10.0998 5.698 10.2573C5.81652 10.4141 7.36452 12.7906 9.73584 13.8095C10.3006 14.0518 10.7405 14.1966 11.0834 14.3043C11.6498 14.484 12.1652 14.4587 12.5725 14.3977C13.0259 14.3304 13.971 13.8285 14.1682 13.2791C14.3647 12.7297 14.3647 12.2586 14.3058 12.1605C14.247 12.0623 14.0895 12.0037 13.8524 11.8858H13.8532ZM9.54015 17.7465H9.53697C8.12852 17.7467 6.74594 17.3699 5.53413 16.6555L5.24776 16.4861L2.27109 17.2635L3.06577 14.3756L2.87883 14.0795C2.09142 12.8321 1.67471 11.3884 1.67686 9.91531C1.67846 5.60073 5.2056 2.09049 9.54333 2.09049C11.6434 2.09049 13.6178 2.9059 15.1021 4.38473C15.8343 5.11036 16.4146 5.97326 16.8094 6.92352C17.2043 7.87379 17.4059 8.89254 17.4026 9.92085C17.401 14.2354 13.8739 17.7465 9.54015 17.7465ZM16.2317 3.26136C15.3552 2.38334 14.3124 1.68716 13.1636 1.21316C12.0148 0.739166 10.7829 0.496773 9.53935 0.500032C4.3258 0.500032 0.0811386 4.72357 0.0795476 9.91452C0.0771318 11.5665 0.512585 13.1899 1.34197 14.621L0 19.5L5.01468 18.1906C6.40189 18.9428 7.95643 19.3369 9.53617 19.3369H9.54015C14.7537 19.3369 18.9984 15.1134 19 9.92164C19.0038 8.68449 18.7611 7.45885 18.286 6.31563C17.8108 5.17241 17.1126 4.13431 16.2317 3.26136Z" fill="#9A9A9A"/>
</svg>
