<svg width="39" height="28" viewBox="0 0 39 28" fill="none" xmlns="http://www.w3.org/2000/svg">
<path d="M25.1522 0C17.44 0 11.3053 6.22234 11.3053 13.8469C11.3053 21.559 17.5276 27.6937 25.1522 27.6937C32.7767 27.6937 38.999 21.4714 38.999 13.8469C39.0867 6.22234 32.7767 0 25.1522 0ZM25.1522 19.0175C22.3477 19.0175 19.9815 16.6513 19.9815 13.8469C19.9815 11.0424 22.3477 8.67623 25.1522 8.67623C27.9566 8.67623 30.3228 11.0424 30.3228 13.8469C30.3228 16.6513 28.0442 19.0175 25.1522 19.0175Z" fill="#8B3FFD"/>
<path d="M11.3054 4.03143V24.1883H6.30997L0 4.03143H11.3054Z" fill="#8B3FFD"/>
</svg>
