<svg width="24" height="16" viewBox="0 0 24 16" fill="none" xmlns="http://www.w3.org/2000/svg">
<path d="M23.4975 2.5104C23.3616 2.02593 23.0969 1.58732 22.7316 1.24119C22.3559 0.884414 21.8955 0.629204 21.3937 0.499649C19.516 0.0049557 11.993 0.00495581 11.993 0.00495581C8.85676 -0.0307094 5.72128 0.126155 2.60427 0.474664C2.10252 0.613791 1.64296 0.874703 1.26645 1.23419C0.896497 1.58997 0.628533 2.0287 0.488551 2.5094C0.15229 4.32002 -0.0110893 6.15848 0.0006171 7.99999C-0.0113813 9.83985 0.151597 11.6777 0.488551 13.4906C0.625533 13.9693 0.892497 14.406 1.26345 14.7588C1.6344 15.1116 2.09634 15.3664 2.60427 15.5013C4.50701 15.995 11.993 15.995 11.993 15.995C15.1332 16.0307 18.2727 15.8739 21.3937 15.5253C21.8955 15.3958 22.3559 15.1406 22.7316 14.7838C23.0968 14.4377 23.3611 13.999 23.4965 13.5146C23.8415 11.7046 24.0093 9.86543 23.9974 8.02298C24.0233 6.17273 23.8558 4.32484 23.4975 2.5094V2.5104ZM9.60133 11.4219V4.57912L15.8605 8.00099L9.60133 11.4219Z" fill="#9A9A9A"/>
</svg>
