<svg width="63" height="63" viewBox="0 0 63 63" fill="none" xmlns="http://www.w3.org/2000/svg">
  <path
    d="M38.5033 21.9421L19.7177 3.08937C15.6132 -1.02979 8.95955 -1.02979 4.85504 3.08937L31.0733 29.3999L38.5046 21.9421H38.5033Z"
    fill="#D80C15" />
  <path
    d="M21.864 23.8154L3.07838 42.6681C-1.02613 46.7873 -1.02613 53.4646 3.07838 57.5838L29.2953 31.2733L21.864 23.8154Z"
    fill="#D80C15" />
  <path
    d="M23.6685 40.6325L42.4542 59.4852C46.5587 63.6044 53.2123 63.6044 57.3168 59.4852L31.0999 33.1747L23.6685 40.6325Z"
    fill="#D80C15" />
  <path
    d="M40.4258 38.6806L59.2114 19.8279C63.3159 15.7087 63.3159 9.0314 59.2114 4.91223L32.9944 31.2228L40.4258 38.6806Z"
    fill="#D80C15" />
  <path
    d="M47.4636 13.1652L37.091 2.75426C33.8026 -0.545855 28.4713 -0.545855 25.1829 2.75426L24.0739 3.86716L40.4019 20.2534L47.4649 13.1652H47.4636Z"
    fill="#D80C15" />
  <path
    d="M3.81637 38.299L20.1443 21.9128L13.0813 14.8246L2.70743 25.2342C-0.580945 28.5343 -0.580945 33.8847 2.70743 37.1848L3.81637 38.2977V38.299Z"
    fill="#D80C15" />
  <path
    d="M14.7229 49.4705L25.0968 59.8815C28.3852 63.1816 33.7165 63.1816 37.0049 59.8815L38.1139 58.7686L21.7859 42.3823L14.7229 49.4705Z"
    fill="#D80C15" />
  <path
    d="M58.4403 24.2744L42.1123 40.6607L49.1753 47.7489L59.5492 37.3379C62.8376 34.0378 62.8376 28.6874 59.5492 25.3873L58.4403 24.2744Z"
    fill="#D80C15" />
</svg>